STARTFONT 2.1
FONT -FontForge-Icleargothic-Bold-R-Normal--32-310-75-75-P-168-ISO10646-1
SIZE 31 75 75
FONTBOUNDINGBOX 39 37 -3 -7
COMMENT "Generated by fontforge, http://fontforge.sourceforge.net"
COMMENT "1991 B & P Graphics, Ltd.       "
STARTPROPERTIES 40
FOUNDRY "FontForge"
FAMILY_NAME "Icleargothic"
WEIGHT_NAME "Bold"
SLANT "R"
SETWIDTH_NAME "Normal"
ADD_STYLE_NAME ""
PIXEL_SIZE 32
POINT_SIZE 310
RESOLUTION_X 75
RESOLUTION_Y 75
SPACING "P"
AVERAGE_WIDTH 168
CHARSET_REGISTRY "ISO10646"
CHARSET_ENCODING "1"
FONTNAME_REGISTRY ""
CHARSET_COLLECTIONS "ISO10646-1"
FONT_NAME "Icleargothic-ExtraBold"
FACE_NAME "Icleargothic ExtraBold"
COPYRIGHT "1991 B & P Graphics, Ltd.       "
FONT_VERSION "001.000"
FONT_ASCENT 26
FONT_DESCENT 6
UNDERLINE_POSITION -3
UNDERLINE_THICKNESS 4
X_HEIGHT 16
CAP_HEIGHT 22
RAW_ASCENT 800
RAW_DESCENT 200
ITALIC_ANGLE 6336
NORM_SPACE 9
RELATIVE_WEIGHT 70
RELATIVE_SETWIDTH 50
SUPERSCRIPT_X 0
SUPERSCRIPT_Y 16
SUPERSCRIPT_SIZE 20
SUBSCRIPT_X 0
SUBSCRIPT_Y 4
SUBSCRIPT_SIZE 20
AVG_LOWERCASE_WIDTH 167
AVG_UPPERCASE_WIDTH 195
ENDPROPERTIES
CHARS 203
STARTCHAR space
ENCODING 32
SWIDTH 290 0
DWIDTH 9 0
BBX 1 1 0 0
BITMAP
00
ENDCHAR
STARTCHAR exclam
ENCODING 33
SWIDTH 302 0
DWIDTH 10 0
BBX 11 23 2 0
BITMAP
FF00
FF00
7F80
7F00
7F00
3F80
3F80
3F80
1F80
1F80
1F80
1F80
1F80
1F80
0FC0
0000
0380
07E0
1FE0
1FE0
1FE0
1FE0
03C0
ENDCHAR
STARTCHAR quotedbl
ENCODING 34
SWIDTH 426 0
DWIDTH 14 0
BBX 12 8 3 15
BITMAP
FBE0
FBE0
FBE0
FBE0
FBE0
F9F0
F9F0
F9F0
ENDCHAR
STARTCHAR numbersign
ENCODING 35
SWIDTH 560 0
DWIDTH 18 0
BBX 17 23 2 0
BITMAP
318000
18C000
18C000
39C000
18C000
18C000
FFFE00
FFFE00
0E7000
0C6000
0C6000
063000
0E7000
073800
7FFF00
3FFF80
031800
073800
039800
031800
018C00
018C00
038E00
ENDCHAR
STARTCHAR dollar
ENCODING 36
SWIDTH 570 0
DWIDTH 18 0
BBX 19 28 1 -2
BITMAP
1F8000
1F8000
1FC000
FFC000
FFF800
FFF800
FFFE00
F07F00
407F00
01FF00
07FF00
0FFF00
3FFF00
7FFE00
7FFE00
7FFC00
FFF000
FFC000
7FC040
7F80C0
7F81C0
7FCFC0
3FFFC0
0FFFE0
07FFC0
01FE00
01F800
01F800
ENDCHAR
STARTCHAR percent
ENCODING 37
SWIDTH 878 0
DWIDTH 28 0
BBX 28 24 2 0
BITMAP
00001000
0701FF00
03C1FF80
01C3FFC0
01C3F7E0
00E3F7E0
0073F3F0
0071F3F0
0039FBF0
001DFFE0
001CFFC0
020E7FC0
3FC70E00
3FE70000
7FFB8000
FFF9C000
FCFDC000
FCFCE000
FCFC7000
7CFC7000
7EF83800
3FF81C00
1FF01C00
07E00E00
ENDCHAR
STARTCHAR ampersand
ENCODING 38
SWIDTH 743 0
DWIDTH 24 0
BBX 24 23 2 0
BITMAP
3FFFE0
3FFFC0
3FFFC0
1FFFE0
001FC0
003FC0
003FC0
007F80
107F80
707FE0
F8FFF0
7DFFF8
7DFFFC
3FFFFC
1FFEFE
0FFCFE
07FCFE
0FF8FF
0FFFFF
1FFFFE
3FFFFC
3FFFFC
7FC3F0
ENDCHAR
STARTCHAR quotesingle
ENCODING 39
SWIDTH 224 0
DWIDTH 7 0
BBX 6 8 3 15
BITMAP
F8
F8
F8
F8
F8
7C
7C
7C
ENDCHAR
STARTCHAR parenleft
ENCODING 40
SWIDTH 294 0
DWIDTH 9 0
BBX 12 29 2 -4
BITMAP
8000
F800
FC00
7E00
7F00
FF00
1F80
1F80
1F80
0FC0
0FC0
0FC0
0FC0
0FE0
0FE0
0FE0
07F0
07F0
07E0
07E0
07E0
07E0
07E0
0FE0
0FE0
0FC0
0F80
0F00
0800
ENDCHAR
STARTCHAR parenright
ENCODING 41
SWIDTH 294 0
DWIDTH 9 0
BBX 12 28 0 -3
BITMAP
0200
1F00
3F00
7E00
7F00
7F00
FC00
FC00
FC00
FC00
FC00
FE00
FE00
7E00
7E00
7F00
7E00
3F00
3F00
7F00
3F00
1F80
1F80
0FE0
07E0
07E0
03E0
00F0
ENDCHAR
STARTCHAR asterisk
ENCODING 42
SWIDTH 435 0
DWIDTH 14 0
BBX 13 12 4 11
BITMAP
0700
4620
7370
FBF8
1FC0
07C0
3FF0
7B78
3198
1188
0380
0380
ENDCHAR
STARTCHAR plus
ENCODING 43
SWIDTH 606 0
DWIDTH 19 0
BBX 16 15 4 5
BITMAP
0780
0780
0F80
0780
0780
0780
FFFE
FFFE
FFFE
7FFF
03C0
03C0
01E0
01E0
01E0
ENDCHAR
STARTCHAR comma
ENCODING 44
SWIDTH 280 0
DWIDTH 9 0
BBX 9 9 1 -3
BITMAP
3F80
3F80
3F80
3F00
7E00
7C00
7C00
F800
F800
ENDCHAR
STARTCHAR hyphen
ENCODING 45
SWIDTH 325 0
DWIDTH 10 0
BBX 10 5 2 7
BITMAP
FF80
FF80
FFC0
FF80
FF80
ENDCHAR
STARTCHAR period
ENCODING 46
SWIDTH 295 0
DWIDTH 9 0
BBX 8 7 2 0
BITMAP
08
7E
FF
FF
FF
7F
3C
ENDCHAR
STARTCHAR slash
ENCODING 47
SWIDTH 387 0
DWIDTH 12 0
BBX 16 23 1 0
BITMAP
0007
000E
000E
001C
001C
0078
0070
0070
00E0
00E0
01C0
0380
0380
0700
0700
0E00
0E00
1C00
3800
3800
7000
7000
E000
ENDCHAR
STARTCHAR zero
ENCODING 48
SWIDTH 606 0
DWIDTH 19 0
BBX 18 24 3 0
BITMAP
001C00
00FE00
07FF80
1FFF80
1FDFC0
3F9FC0
3F9FC0
7F9FC0
7F9FC0
7FBFC0
FF3FC0
FF3FC0
FF3FC0
FF3FC0
FF3FC0
FF3FC0
FE3F80
FE7F00
FE7F00
7FFE00
7FFC00
3FF800
1FF000
07F000
ENDCHAR
STARTCHAR one
ENCODING 49
SWIDTH 606 0
DWIDTH 19 0
BBX 17 23 2 0
BITMAP
003F00
01FF00
0FFE00
0FFF00
1FFE00
19FE00
01FE00
01FE00
01FE00
03FC00
03FC00
03FC00
03FC00
03FC00
03FC00
03FC00
07F800
07F800
07F800
47F880
7FFF00
7FFF00
FFFF00
ENDCHAR
STARTCHAR two
ENCODING 50
SWIDTH 605 0
DWIDTH 19 0
BBX 20 24 1 0
BITMAP
001800
03FF80
0FFFC0
0FFFE0
0FFFF0
0E0FF0
080FF0
081FE0
001FE0
003FC0
007FC0
007F80
00FF00
01FC00
03F800
07F000
0FC000
1F8000
3F8000
7FFFC0
7FFFC0
FFFF80
FFFF80
FFFF80
ENDCHAR
STARTCHAR three
ENCODING 51
SWIDTH 606 0
DWIDTH 19 0
BBX 19 24 2 0
BITMAP
001000
0FFF80
0FFFC0
0FFFE0
0FFFE0
181FE0
001FE0
001FE0
001FE0
03FFC0
03FF00
03FC00
03FE00
03FFC0
007FC0
003FC0
003FC0
403FC0
603FC0
FFFF80
7FFF80
FFFE00
7FFC00
FFE000
ENDCHAR
STARTCHAR four
ENCODING 52
SWIDTH 606 0
DWIDTH 19 0
BBX 19 23 1 0
BITMAP
001F80
003F20
007EC0
00FDC0
00FDC0
01F3C0
01F7C0
03EF80
07FF80
0FBF80
1F7F80
1F7F80
3E7F80
7C7F80
7FFFC0
7FFFC0
FFFF80
FFFF80
00FF00
00FF00
01FE00
01FE00
01FE00
ENDCHAR
STARTCHAR five
ENCODING 53
SWIDTH 606 0
DWIDTH 19 0
BBX 20 24 2 0
BITMAP
000010
0FFFE0
0FFFE0
0FFFE0
0FFFE0
0FFFE0
0F8000
1F0000
1F0000
1FF000
1FFF80
1FFFC0
1FFFC0
06FFC0
003FE0
007FC0
003FC0
403FC0
607F80
70FF80
7FFF00
7FFE00
FFF800
FFC000
ENDCHAR
STARTCHAR six
ENCODING 54
SWIDTH 607 0
DWIDTH 19 0
BBX 19 24 3 0
BITMAP
000300
007FE0
01FFC0
03FFE0
07FFC0
0FE040
0FC000
3FC000
3FCE00
3FFF00
3FFF80
7FFF80
7FFFC0
7FBFC0
7F9FC0
FF3FC0
FF3F80
FF7F80
FF3F80
7F7F00
7FFE00
3FFC00
1FF800
07F000
ENDCHAR
STARTCHAR seven
ENCODING 55
SWIDTH 605 0
DWIDTH 19 0
BBX 18 23 4 0
BITMAP
7FFF80
7FFF80
7FFFC0
7FFF80
7F9F00
001F00
003E00
007E00
007C00
007C00
00F800
00F800
01F800
01F000
03F000
07E000
07E000
1FC000
1FC000
3F8000
7F8000
7F8000
FF8000
ENDCHAR
STARTCHAR eight
ENCODING 56
SWIDTH 606 0
DWIDTH 19 0
BBX 19 24 2 0
BITMAP
000800
03FE00
07FFC0
07FFE0
0FE7C0
1F87C0
1FC7C0
1FFF80
1FFF80
1FFE00
1FFE00
0FFF80
0FFFC0
3FFFC0
3EFFC0
7C7FE0
F81FC0
F80FC0
FC1F80
FC1F80
FFFF00
7FFE00
3FFE00
1FE000
ENDCHAR
STARTCHAR nine
ENCODING 57
SWIDTH 606 0
DWIDTH 19 0
BBX 19 24 3 0
BITMAP
007000
03FF00
07FF80
0FFFC0
3FFFC0
3F9FE0
7F9FE0
3F9FE0
3F9FE0
7F3FC0
7F3FC0
7F7FC0
3FFFC0
3FFF80
1FFFC0
07BF80
007F00
007F00
40FF00
41FC00
FFF800
7FF000
7FE000
7F0000
ENDCHAR
STARTCHAR colon
ENCODING 58
SWIDTH 302 0
DWIDTH 10 0
BBX 9 17 2 0
BITMAP
0300
3F80
7F80
7F80
7F80
3F80
1C00
0000
0000
0000
0800
FC00
FF00
FF00
FF00
FF00
7800
ENDCHAR
STARTCHAR semicolon
ENCODING 59
SWIDTH 303 0
DWIDTH 10 0
BBX 10 20 1 -3
BITMAP
0180
1FC0
3FC0
3FC0
3FC0
1FC0
0E00
0000
0000
0000
0000
3F80
7F00
7E00
7E00
7E00
7C00
F800
F800
F000
ENDCHAR
STARTCHAR less
ENCODING 60
SWIDTH 522 0
DWIDTH 17 0
BBX 13 14 3 5
BITMAP
0018
0070
01F0
07F0
0FF8
7FE0
FF80
FF80
3FE0
0FF8
07F0
01F0
0078
0018
ENDCHAR
STARTCHAR equal
ENCODING 61
SWIDTH 606 0
DWIDTH 19 0
BBX 16 11 4 7
BITMAP
3FFF
7FFE
7FFE
7FFE
0000
0000
0000
FFFC
FFFC
FFFC
FFFC
ENDCHAR
STARTCHAR greater
ENCODING 62
SWIDTH 522 0
DWIDTH 17 0
BBX 13 14 4 5
BITMAP
C000
E000
F800
FE00
FFC0
3FE0
0FF8
0FF8
3FE0
FF80
FE00
F800
F000
C000
ENDCHAR
STARTCHAR question
ENCODING 63
SWIDTH 501 0
DWIDTH 16 0
BBX 17 24 3 0
BITMAP
00C000
0FFC00
3FFF00
FFFF00
7FFF00
387F80
187F80
08FF80
07FF00
07FE00
07FE00
07FC00
0FF000
07C000
07C000
0F8000
000000
020000
1F8000
3FC000
3FE000
3FC000
3F8000
1E0000
ENDCHAR
STARTCHAR at
ENCODING 64
SWIDTH 834 0
DWIDTH 27 0
BBX 22 24 5 0
BITMAP
000400
01FFE0
01F7F0
0F0038
1C0038
380D8C
387F9C
70F38C
71830C
E1838C
E3830C
63830C
E7060C
E3060C
E3061C
E30E30
731E30
61FFE8
38E388
380038
1E0070
0F81E0
07FF80
00FE00
ENDCHAR
STARTCHAR A
ENCODING 65
SWIDTH 652 0
DWIDTH 21 0
BBX 23 23 -1 0
BITMAP
001FE0
001FE0
003FE0
003FF0
007FE0
007FF0
007FF0
00FFF0
00FFF0
01FFF0
01EFF0
03EFF0
07CFF0
07C7F8
0FFFF8
0FFFFC
1FFFF8
1FFFFC
3E07FC
3F07FC
3E0FFC
7E07FE
FC07FE
ENDCHAR
STARTCHAR B
ENCODING 66
SWIDTH 650 0
DWIDTH 21 0
BBX 21 23 2 0
BITMAP
1FFFC0
0FFFF8
1FFFF8
1FFFF8
1FFFF8
1FE7F8
3FC7F8
3FC7F8
3FFFF0
3FFFE0
3FFF80
7FFFC0
3FFFF0
7FBFF8
7F8FF0
7F8FF0
7F8FF8
7F8FF0
7FFFF0
7FFFE0
FFFFC0
FFFF00
FFF000
ENDCHAR
STARTCHAR C
ENCODING 67
SWIDTH 602 0
DWIDTH 19 0
BBX 21 24 2 0
BITMAP
000100
007FF8
01FFF0
07FFF0
07FFF0
0FF030
1FE030
3FC010
3FC010
3FC000
7F8000
7F8000
7F8000
7F8000
7F8000
7F8000
FF8000
7F8080
7FC040
3FFFE0
1FFFE0
1FFFC0
07FF00
01FC00
ENDCHAR
STARTCHAR D
ENCODING 68
SWIDTH 642 0
DWIDTH 21 0
BBX 22 23 1 0
BITMAP
0FFF00
0FFFE0
0FFFF0
0FFFF8
1FEFF8
1FE7F8
1FE3FC
1FE3FC
1FE3FC
1FE7F8
3FC7F8
3FC7F8
3FC7F8
3FC7F8
3FCFF0
3FCFF0
7F8FF0
7F9FE0
7FFFC0
FFFF80
7FFF00
7FFC00
FF8000
ENDCHAR
STARTCHAR E
ENCODING 69
SWIDTH 555 0
DWIDTH 18 0
BBX 19 23 2 0
BITMAP
1FFFE0
1FFFE0
1FFFE0
1FFFE0
1FE000
1FE000
1FE000
1FE000
3FC080
3FFF00
3FFF00
3FFF00
3FFF00
3FC000
7F8000
7F8000
7F8000
7F8000
FFFF80
7FFF80
7FFF80
FFFF00
FFFF80
ENDCHAR
STARTCHAR F
ENCODING 70
SWIDTH 494 0
DWIDTH 16 0
BBX 19 23 2 0
BITMAP
0FFFE0
0FFFE0
1FFFE0
0FFFE0
1FE000
1FE000
1FE000
1FE000
1FE000
1FFF00
1FFF00
1FFF00
3FFE00
3FC000
3FC000
3FC000
3FC000
7F8000
7F8000
7F8000
FF8000
7F8000
7F8000
ENDCHAR
STARTCHAR G
ENCODING 71
SWIDTH 664 0
DWIDTH 21 0
BBX 21 24 2 0
BITMAP
000100
007FF8
01FFF8
07FFF0
0FFFF0
1FE030
1FE010
3FC010
3FC010
7F8000
7F8000
7F8000
FF0FF0
FF0FF0
FF0FF0
FF0FF0
FF1FE0
FF1FE0
7F9FE0
7FDFE0
3FFFE0
1FFFE0
0FFFE0
03FC00
ENDCHAR
STARTCHAR H
ENCODING 72
SWIDTH 664 0
DWIDTH 21 0
BBX 23 23 1 0
BITMAP
1FE3FC
1FE3FE
1FE3FC
1FE3FC
1FE3FC
3FC7F8
3FC7F8
3FC7F8
3FFFF8
3FFFF8
3FFFF8
7FFFF0
7FFFF0
7F8FF0
7F8FF0
7F8FF0
7F8FF0
FF1FE0
FF1FE0
FF1FE0
FF1FE0
FF1FE0
FF1FE0
ENDCHAR
STARTCHAR I
ENCODING 73
SWIDTH 318 0
DWIDTH 10 0
BBX 11 23 2 0
BITMAP
1FE0
1FE0
1FE0
1FE0
1FE0
3FC0
3FC0
3FC0
3FC0
3FC0
3FC0
7F80
7F80
7F80
7F80
7F80
7F80
7F80
FF00
FF00
FF00
FF00
FF00
ENDCHAR
STARTCHAR J
ENCODING 74
SWIDTH 372 0
DWIDTH 12 0
BBX 15 23 1 0
BITMAP
01FE
01FE
01FE
01FE
01FE
03FC
03FC
03FC
03FC
03FC
03FC
07F8
07F8
07F8
07F8
07F8
07F8
47F8
7FF0
7FF0
7FE0
FFC0
7F80
ENDCHAR
STARTCHAR K
ENCODING 75
SWIDTH 667 0
DWIDTH 21 0
BBX 22 23 2 0
BITMAP
1FE0FC
1FF1FC
1FE3F0
1FE3E0
3FCFC0
3FCFC0
3FDF80
3FFF80
3FFFC0
3FFFC0
3FFFC0
3FFFC0
7FFFC0
7FFFC0
7FDFE0
7FDFE0
7FBFE0
FF1FE0
FF1FE0
FF0FF0
FF0FF0
FF1FF0
FF0FF8
ENDCHAR
STARTCHAR L
ENCODING 76
SWIDTH 506 0
DWIDTH 16 0
BBX 16 23 2 0
BITMAP
1FF0
0FF0
0FF0
1FE0
1FE0
1FE0
1FE0
1FE0
1FE0
1FE0
3FC0
3FC0
3FC0
3FC0
3FC0
3FC0
7F80
7F80
7FFF
7FFF
FFFF
7FFF
7FFF
ENDCHAR
STARTCHAR M
ENCODING 77
SWIDTH 882 0
DWIDTH 28 0
BBX 30 23 1 0
BITMAP
07FC07FC
07FC0FF8
07FE0FF8
07FE1FF8
07FE1FF8
0FFE3FF0
0FFF3FF8
0FFF7FF0
0FFFFFF0
0FFFFFF0
1E7FFFF0
1FFFEFF0
3E7FEFF0
3E7FEFF0
3E7F8FF0
3E7F8FF0
3E3F8FF0
7C7F1FE0
7C3F1FE0
7C3E1FE0
7C001FE0
F8001FF0
F8003FE0
ENDCHAR
STARTCHAR N
ENCODING 78
SWIDTH 644 0
DWIDTH 21 0
BBX 22 23 2 0
BITMAP
0FE07C
1FE07C
0FF07C
1FF07C
1FF0F8
1FF87C
1FFCF8
1FFCF8
1FFEF8
1FFEF8
3FFEF8
3FFFF0
3EFFF8
3EFFF0
7C7FF0
7C7FF0
7C3FF0
7C3FE0
7C3FE0
7C1FE0
7C1FE0
F80FE0
F807E0
ENDCHAR
STARTCHAR O
ENCODING 79
SWIDTH 664 0
DWIDTH 21 0
BBX 21 24 2 0
BITMAP
007000
03FF80
07FFE0
1FFFE0
1FFFF0
3FCFF0
7F87F8
7F87F8
7F87F8
FF07F8
FF07F8
FF0FF0
FF0FF0
FF0FF0
FF0FF0
FF1FE0
FF1FE0
FF1FE0
FE3FC0
7F3FC0
7FFF00
3FFF00
1FFE00
07F000
ENDCHAR
STARTCHAR P
ENCODING 80
SWIDTH 616 0
DWIDTH 20 0
BBX 22 23 2 0
BITMAP
0FFFE0
0FFFF8
0FFFFC
0FFFFC
0FFFFC
0FF3FC
0FF3FC
1FE3FC
1FE7FC
1FFFF8
1FFFF8
1FFFF0
3FFFC0
1FFC00
3FC000
3FC000
3FC000
3FC000
3FC000
7F8000
7F8000
7F8000
FF8000
ENDCHAR
STARTCHAR Q
ENCODING 81
SWIDTH 664 0
DWIDTH 21 0
BBX 21 27 2 -3
BITMAP
007000
03FF80
07FFE0
1FFFE0
1FFFF0
3FCFF0
3FC7F8
7F87F8
7F87F8
7F87F8
FF07F8
FF0FF0
FF8FF0
FF0FF0
FF0FF0
FF0FF0
FF1FE0
FF1FC0
FE1FC0
FF7F80
7FFF80
3FFFE0
1FFFE0
07FF80
03FF80
001F80
000300
ENDCHAR
STARTCHAR R
ENCODING 82
SWIDTH 640 0
DWIDTH 20 0
BBX 22 23 1 0
BITMAP
1FFFC0
1FFFF0
1FFFF8
1FFFF8
1FEFFC
1FE3FC
1FE7F8
3FC7F8
3FCFF0
3FFFF0
3FFFE0
3FFFC0
3FFF80
7FFF80
7FBFC0
7FBFC0
7FBFC0
7FBFC0
7FBFC0
7F9FE0
FF1FE0
FF1FF0
FF9FF0
ENDCHAR
STARTCHAR S
ENCODING 83
SWIDTH 569 0
DWIDTH 18 0
BBX 19 24 1 0
BITMAP
000400
01FFE0
07FFC0
07FFC0
0FFFC0
1FC3C0
1FC040
3FE000
3FF800
3FFC00
3FFF00
1FFF80
0FFFC0
0FFFC0
03FFC0
00FFC0
407FC0
603F80
703F80
FC7F80
FFFF00
FFFE00
FFFC00
0FE000
ENDCHAR
STARTCHAR T
ENCODING 84
SWIDTH 505 0
DWIDTH 16 0
BBX 17 23 3 0
BITMAP
FFFF80
FFFF80
FFFF80
FFFF80
0FF000
0FF000
0FF000
0FF000
0FF000
1FE000
1FE000
1FE000
1FE000
1FE000
1FE000
3FC000
3FC000
3FC000
3FC000
3FC000
3FC000
3FC000
7F8000
ENDCHAR
STARTCHAR U
ENCODING 85
SWIDTH 627 0
DWIDTH 20 0
BBX 20 23 3 0
BITMAP
3FC1F0
3FC1F0
3FC1F0
3FC1F0
3FC1F0
3FC1F0
7F83E0
7F83E0
7F83E0
7F83E0
7F83E0
7F83E0
FF07C0
FF07C0
FF07C0
FF03C0
FF07C0
FF0F80
FFFF00
7FFF00
3FFE00
3FF800
07E000
ENDCHAR
STARTCHAR V
ENCODING 86
SWIDTH 575 0
DWIDTH 18 0
BBX 21 23 3 0
BITMAP
FF80F8
FF81F0
7F81F0
FF83E0
7FC3E0
7F83E0
7F87C0
7F87C0
3FCF80
3FCF80
3FDF00
3FDF00
3FFE00
3FFC00
3FFC00
1FFC00
3FF800
1FF800
1FF000
1FE000
1FE000
1FE000
0FF000
ENDCHAR
STARTCHAR W
ENCODING 87
SWIDTH 934 0
DWIDTH 30 0
BBX 32 23 3 0
BITMAP
7F83FC1F
7F83FC1F
7F83FC3E
7F87FC3E
FF87FC7C
7F8FFC7C
7F9FFCF8
7F9FFCF8
7F9FFEF8
7FBFFDF0
7FBFFFF0
7FFDFFE0
3FFDFFE0
3FFDFFE0
3FF9FFC0
3FF1FF80
3FF1FF80
3FE1FF00
3FE1FF00
1FE0FF00
3FC1FE00
1FE0FF00
1FE0FF00
ENDCHAR
STARTCHAR X
ENCODING 88
SWIDTH 676 0
DWIDTH 22 0
BBX 26 23 0 0
BITMAP
03FE0FC0
07FE1F80
03FE3F00
01FF7E00
01FFFC00
01FFF800
00FFF800
00FFE000
007FE000
007FC000
003FE000
003FE000
007FE000
007FF000
01FFF000
03FFF800
03FFF800
07E7FC00
0FC7FC00
1F87FC00
3F87FE00
7E03FE00
FC03FF00
ENDCHAR
STARTCHAR Y
ENCODING 89
SWIDTH 598 0
DWIDTH 19 0
BBX 22 23 3 0
BITMAP
FF80FC
7FC0F8
7FC1F8
7FC3E0
3FE3E0
3FC7C0
1FE7C0
3FEF80
1FFF00
0FFF00
0FFE00
0FFC00
0FF800
07F800
07F800
07F800
0FF000
0FF000
0FF000
0FF000
0FF000
0FF000
1FE000
ENDCHAR
STARTCHAR Z
ENCODING 90
SWIDTH 603 0
DWIDTH 19 0
BBX 22 23 1 0
BITMAP
0FFFFC
0FFFF8
0FFFF8
0FFFF0
0FDFE0
001FE0
007FC0
007F80
007F80
00FF80
01FE00
01FE00
03FC00
03FC00
07F800
0FF000
0FF000
3FE010
3FFFE0
7FFFE0
7FFFF0
FFFFE0
FFFFE0
ENDCHAR
STARTCHAR bracketleft
ENCODING 91
SWIDTH 302 0
DWIDTH 10 0
BBX 12 28 2 -3
BITMAP
0FF0
0FF0
0FF0
0FC0
0FC0
1F80
1F80
0F80
1F00
1F80
1F80
3F00
1F00
1F00
1F00
3E00
3E00
3F00
7E00
3E00
3E00
7C00
7E00
7E00
FC00
FF00
FF00
FF00
ENDCHAR
STARTCHAR backslash
ENCODING 92
SWIDTH 432 0
DWIDTH 14 0
BBX 9 23 4 0
BITMAP
F800
F800
F800
F800
7C00
7C00
7C00
7C00
7C00
7C00
3E00
3E00
3E00
3E00
3E00
3E00
1F00
1F00
1F00
1F00
1F00
0F80
0F80
ENDCHAR
STARTCHAR bracketright
ENCODING 93
SWIDTH 302 0
DWIDTH 10 0
BBX 12 28 1 -3
BITMAP
0FF0
0FF0
0FF0
03F0
03F0
03F0
03F0
07E0
03E0
03E0
07C0
07C0
07E0
0FC0
07C0
07C0
0F80
0F80
0FC0
1F80
1F80
0F80
1F80
1F80
1F80
FF00
FF00
FF00
ENDCHAR
STARTCHAR asciicircum
ENCODING 94
SWIDTH 535 0
DWIDTH 17 0
BBX 14 14 3 5
BITMAP
0100
0100
0380
0780
07C0
0FC0
0FE0
1FE0
1FF0
3FF0
7CF8
7CF8
F87C
F87C
ENDCHAR
STARTCHAR underscore
ENCODING 95
SWIDTH 439 0
DWIDTH 14 0
BBX 11 2 2 -1
BITMAP
FFE0
FFE0
ENDCHAR
STARTCHAR grave
ENCODING 96
SWIDTH 297 0
DWIDTH 10 0
BBX 5 5 5 18
BITMAP
F0
F0
70
38
38
ENDCHAR
STARTCHAR a
ENCODING 97
SWIDTH 564 0
DWIDTH 18 0
BBX 19 17 2 0
BITMAP
01C180
07FFE0
1FFFC0
1FFFC0
3F3F80
7F3F80
7F3FC0
7F3F80
7F3F80
FE3F80
FE7F00
FE7F00
7F7F00
FFFF00
7FFF00
3FFF00
1E7F80
ENDCHAR
STARTCHAR b
ENCODING 98
SWIDTH 579 0
DWIDTH 19 0
BBX 18 23 2 0
BITMAP
0FE000
1FC000
1FC000
1FC000
3FC000
1FC000
1FFC00
3FFF00
3FFF80
3FFF80
7FBF80
3F9FC0
3F9FC0
3FBF80
7F3F80
7F3F80
7FBF80
7F7F00
7F7E00
FFFE00
FFFC00
FFF800
43E000
ENDCHAR
STARTCHAR c
ENCODING 99
SWIDTH 479 0
DWIDTH 15 0
BBX 16 17 2 0
BITMAP
000F
07FE
1FFE
3FFE
3FFE
7F00
7F00
7F00
FE00
FE00
FE00
FE04
FF0C
7FFE
7FFE
1FFC
0FC0
ENDCHAR
STARTCHAR d
ENCODING 100
SWIDTH 577 0
DWIDTH 18 0
BBX 19 23 2 0
BITMAP
001FC0
001FE0
003FC0
001FC0
001FC0
003F80
00FF80
0FFF80
1FFF80
1FFF80
3FBF80
7F3F80
7F7F00
FE7F00
FE7F80
FE7F00
FE7F00
FE7F00
FEFE00
FFFE00
7FFF00
7FFE00
3FFE00
ENDCHAR
STARTCHAR e
ENCODING 101
SWIDTH 529 0
DWIDTH 17 0
BBX 17 17 2 0
BITMAP
01F800
07FE00
1FFF00
3FFF00
3FBF80
7F3F00
7F7F00
FFFF00
FFF800
FFE000
FF0000
7F0400
7F8E00
7FFF00
7FFE00
3FF800
07E000
ENDCHAR
STARTCHAR f
ENCODING 102
SWIDTH 357 0
DWIDTH 11 0
BBX 15 24 2 0
BITMAP
000E
03FE
07FE
0FFE
0FFE
1FC0
1FC0
FFF8
FFF8
FFF8
FFF8
1FC0
3F80
3F80
3F80
3FC0
3F80
3F80
3F80
7F00
7F00
7F00
FF00
FF00
ENDCHAR
STARTCHAR g
ENCODING 103
SWIDTH 542 0
DWIDTH 17 0
BBX 18 23 1 -6
BITMAP
00C080
07FFC0
0FFFC0
1FFFC0
1FDFC0
3FBF80
3F3F80
7F3F80
7F3F80
7F3F80
7F3F80
7F7F00
7F7F00
7FFF00
3FFF80
3FFF00
0FFF00
407F00
40FE00
7FFE00
FFFC00
FFF800
FFC000
ENDCHAR
STARTCHAR h
ENCODING 104
SWIDTH 575 0
DWIDTH 18 0
BBX 19 23 1 0
BITMAP
0FF000
0FE000
0FE000
0FE000
1FC000
1FC000
1FCF80
3FFFC0
1FFFE0
1FFFE0
1FDFE0
3F9FC0
3F9FE0
7F9FC0
3F9FC0
3F9FC0
3FBF80
7F3F80
7F3F80
7FFF80
FF7F80
7F3F80
FF7F80
ENDCHAR
STARTCHAR i
ENCODING 105
SWIDTH 302 0
DWIDTH 10 0
BBX 12 24 1 0
BITMAP
00C0
0FF0
1FE0
1FE0
1FE0
0FE0
0000
3FC0
1FC0
1FC0
1FC0
3F80
3F80
3F80
7F80
3F80
3F80
7F00
7F00
7F00
FF00
FF00
7F00
FF00
ENDCHAR
STARTCHAR j
ENCODING 106
SWIDTH 297 0
DWIDTH 10 0
BBX 15 30 -3 -6
BITMAP
0018
01FE
03FC
03FC
03FC
01FC
0000
03FC
07F8
03F8
03F8
03F8
07F0
07F0
07F0
07F0
07F0
07F0
0FE0
0FE0
0FE0
0FE0
0FE0
0FE0
1FC0
BFC0
FF80
FF80
FF00
FC00
ENDCHAR
STARTCHAR k
ENCODING 107
SWIDTH 562 0
DWIDTH 18 0
BBX 20 23 1 0
BITMAP
0FE000
0FE000
0FE000
1FE000
0FE000
0FE010
0FE1E0
1FC7E0
1FCFE0
1FFFE0
1FFFE0
1FFF80
1FFF80
3FFF80
3FFF80
3FFF80
3FFF80
3FBF80
3FBF80
7F3F80
7F1FC0
7FBFC0
FF3FC0
ENDCHAR
STARTCHAR l
ENCODING 108
SWIDTH 297 0
DWIDTH 10 0
BBX 12 23 1 0
BITMAP
0FE0
0FF0
1FE0
0FE0
0FE0
1FC0
1FC0
1FC0
1FE0
1FC0
1FC0
1FC0
3F80
3F80
3F80
3F80
3F80
3F80
7F00
7F00
7F80
FF00
FF00
ENDCHAR
STARTCHAR m
ENCODING 109
SWIDTH 846 0
DWIDTH 27 0
BBX 28 17 1 0
BITMAP
1FC203C0
1FFFFFE0
1FFFFFE0
1FFFFFF0
3FDFFFF0
1FDFCFE0
1FDFDFE0
3F9FCFE0
3F9FCFE0
3FDFCFE0
3F9FDFC0
3FBF9FC0
3FBF9FE0
7F3FBFC0
7F3F9FC0
7FBFBFC0
FF7FBFC0
ENDCHAR
STARTCHAR n
ENCODING 110
SWIDTH 577 0
DWIDTH 18 0
BBX 19 17 1 0
BITMAP
1FEF80
3FFFC0
1FFFE0
1FFFE0
3FDFC0
3F9FC0
3F9FC0
3FDFC0
3F9FC0
3F9FC0
3FBF80
7F3F80
7F3F80
7FFF80
FF3F80
7F3F80
FF7F80
ENDCHAR
STARTCHAR o
ENCODING 111
SWIDTH 547 0
DWIDTH 18 0
BBX 18 17 2 0
BITMAP
006000
07FF00
1FFF00
1FFF80
3FBFC0
3FBF80
7F3F80
7F3F80
FF3F80
7F7F80
7F3F80
7F7F00
7F7F00
7FFE00
3FFE00
1FF800
07E000
ENDCHAR
STARTCHAR p
ENCODING 112
SWIDTH 552 0
DWIDTH 18 0
BBX 19 22 0 -5
BITMAP
1FC700
1FFF80
1FFFC0
1FFFC0
3FDFC0
1FCFE0
1FDFC0
3F9FC0
3F9FC0
3F9FC0
7F9FC0
3FBF80
3FBF80
3FFF00
7FFE00
7FFC00
7FF000
FE0000
FE0000
7F0000
FE0000
FE0000
ENDCHAR
STARTCHAR q
ENCODING 113
SWIDTH 561 0
DWIDTH 18 0
BBX 19 22 1 -5
BITMAP
003180
07FFE0
1FFFC0
1FFFC0
3F3F80
3FBF80
7F3FC0
7F3F80
7F3F80
7F3F80
7F7F00
7F7F00
7F7F80
FFFF00
3FFF00
3FFF00
0FFE00
00FE00
00FE00
01FE00
00FE00
00FE00
ENDCHAR
STARTCHAR r
ENCODING 114
SWIDTH 384 0
DWIDTH 12 0
BBX 15 17 1 0
BITMAP
3FCE
1FFE
3FFC
1FFC
1FFC
1FF8
1FC0
3F80
3F80
3F80
3F80
3F80
3F80
7F00
7F00
7F80
FF00
ENDCHAR
STARTCHAR s
ENCODING 115
SWIDTH 487 0
DWIDTH 16 0
BBX 16 17 1 0
BITMAP
001F
0FFE
1FFE
3FFE
3F86
3FE2
7FF8
3FF8
1FFE
0FFF
87FE
43FE
F0FE
FFFC
FFFC
FFF8
FFC0
ENDCHAR
STARTCHAR t
ENCODING 116
SWIDTH 361 0
DWIDTH 12 0
BBX 12 22 3 0
BITMAP
1FC0
1FC0
1FC0
1FE0
1FC0
FFF0
FFF0
FFF0
FFF0
3F80
3F80
3F80
3F80
7F00
7F00
7F00
FF00
7F90
7FE0
7FE0
7FC0
1FE0
ENDCHAR
STARTCHAR u
ENCODING 117
SWIDTH 576 0
DWIDTH 18 0
BBX 19 17 2 0
BITMAP
3FDFE0
3FFFC0
7F9FC0
7F9FC0
3FBF80
7F3F80
7F3F80
7F7F80
7F3F80
7F3F80
7F3F80
FE7F00
FE7F00
FFFF00
FFFF00
7FFF00
3F7F00
ENDCHAR
STARTCHAR v
ENCODING 118
SWIDTH 484 0
DWIDTH 15 0
BBX 17 17 2 0
BITMAP
FF1F80
FF3F00
FF3E00
FF7E00
FF3E00
7F7C00
7F7C00
7FF800
7FF800
7FF800
7FF000
7FE000
3FE000
3FE000
3FC000
3F8000
1F8000
ENDCHAR
STARTCHAR w
ENCODING 119
SWIDTH 760 0
DWIDTH 24 0
BBX 25 17 3 0
BITMAP
FF1F8F80
FF1F9F80
FF3F9F00
FF3F9F80
7F3F9F00
7F7FBE00
7F7FBE00
FF7FFC00
7FFFFC00
7FFFF800
7FFFF800
3FFFF000
3FEFF000
3FDFE000
3F8FE000
3F8FE000
1F8FC000
ENDCHAR
STARTCHAR x
ENCODING 120
SWIDTH 525 0
DWIDTH 17 0
BBX 21 17 -1 0
BITMAP
0FF1F8
07FBE0
07F3E0
03FFC0
03FF80
01FF80
01FF00
01FE00
01FF00
01FF80
03FF80
07FFC0
0FBFC0
1FBFC0
3F3FC0
3F1FE0
FE1FE0
ENDCHAR
STARTCHAR y
ENCODING 121
SWIDTH 459 0
DWIDTH 15 0
BBX 19 23 -1 -6
BITMAP
1FE3E0
1FE7E0
0FE3E0
0FE7C0
0FEFC0
0FEF80
0FEF80
0FEF80
0FFF00
07FF00
07FF00
07FE00
07FC00
03FC00
07F800
03F800
03F000
07E000
FFC000
FF8000
FF0000
FE0000
F80000
ENDCHAR
STARTCHAR z
ENCODING 122
SWIDTH 504 0
DWIDTH 16 0
BBX 18 17 1 0
BITMAP
1FFFC0
1FFF80
1FFF80
1FFF80
1FFF00
11FE00
01FE00
03FC00
07F800
07F800
0FF000
1FE100
1FE700
3FFF00
3FFF00
7FFF00
FFFE00
ENDCHAR
STARTCHAR braceleft
ENCODING 123
SWIDTH 366 0
DWIDTH 12 0
BBX 12 30 1 -3
BITMAP
1F00
1FE0
0FE0
07E0
07E0
07E0
07E0
07E0
0FC0
0FC0
0FC0
0FC0
0F80
07C0
07C0
03F0
0F80
1F80
1F80
1F80
1F80
1F80
1F80
1F80
3F00
3F00
1F00
3F00
FF00
FE00
ENDCHAR
STARTCHAR bar
ENCODING 124
SWIDTH 302 0
DWIDTH 10 0
BBX 5 23 4 0
BITMAP
F8
F8
F8
F8
F8
F8
F8
F8
F8
F8
F8
F8
F8
F8
F8
F8
F8
F8
F8
F8
F8
F8
F8
ENDCHAR
STARTCHAR braceright
ENCODING 125
SWIDTH 366 0
DWIDTH 12 0
BBX 12 30 2 -3
BITMAP
01F0
1FE0
0FE0
1F80
1F80
1F80
1F80
1F80
3F00
3F00
3F00
3F00
3F00
3E00
7C00
F800
3E00
7E00
7E00
7E00
7E00
7E00
7E00
7E00
FC00
FC00
FC00
FC00
FF00
7F00
ENDCHAR
STARTCHAR asciitilde
ENCODING 126
SWIDTH 515 0
DWIDTH 16 0
BBX 16 6 2 9
BITMAP
F0F8
7BFE
7FFE
7FFE
3FDE
1E0F
ENDCHAR
STARTCHAR exclamdown
ENCODING 161
SWIDTH 302 0
DWIDTH 10 0
BBX 11 24 2 0
BITMAP
1C00
3F00
FF00
FF00
FF00
FF00
1E00
0000
3E00
3F00
3F00
3F00
1F80
1F80
3F80
1FC0
1FC0
1FC0
1FE0
1FE0
1FE0
1FE0
1FE0
1FE0
ENDCHAR
STARTCHAR cent
ENCODING 162
SWIDTH 490 0
DWIDTH 16 0
BBX 16 21 2 -2
BITMAP
3E00
3E00
FF00
FFC0
7FF0
7FF8
FFF8
01FC
00FE
01FE
00FE
00FE
00FE
20FE
31FF
7FFE
FFFC
FFF8
07E0
07C0
03E0
ENDCHAR
STARTCHAR sterling
ENCODING 163
SWIDTH 574 0
DWIDTH 18 0
BBX 19 24 1 0
BITMAP
060000
7FF800
FFFC00
FFFE00
FFFE00
E0FF00
C0FF00
40FF00
00FF00
00FF00
00FF00
01FE00
1FFF80
1FFF80
1FFF80
01FC00
00FE00
00FC00
407E00
703E00
7FFFC0
3FFFE0
3FFFC0
1FFFE0
ENDCHAR
STARTCHAR currency
ENCODING 164
SWIDTH 507 0
DWIDTH 16 0
BBX 12 12 4 6
BITMAP
C220
FFF0
7FE0
6060
6060
C030
C030
6060
70E0
61E0
FFF0
DFF0
ENDCHAR
STARTCHAR yen
ENCODING 165
SWIDTH 742 0
DWIDTH 24 0
BBX 22 23 4 0
BITMAP
FC0FF8
7C0FF8
7C0FF8
3E1FF0
1F0FF0
1F1FE0
0FFFE0
07DFE0
07FFC0
07FFC0
01FFC0
1FFFFC
1FFFFC
007F80
007FFC
1FFFFC
03FF80
007F80
003FC0
003FC0
003FC0
003FC0
003FC0
ENDCHAR
STARTCHAR section
ENCODING 167
SWIDTH 630 0
DWIDTH 20 0
BBX 22 31 1 -7
BITMAP
004000
1FF000
3FFF00
7FFF00
7F7F80
FC1F80
7C1F80
001FC0
01FF80
03FF80
07FF00
1FFFC0
3FFFE0
3FF3F0
3FC3F0
3F83F0
3F03F8
3E0FF8
1F7FF0
1FFFE0
0FFFE0
07FFC0
07FE00
07FC00
0FF0F8
0FE0F8
07E0FC
07E1F8
03FFF8
01FFF0
00FFC0
ENDCHAR
STARTCHAR dieresis
ENCODING 168
SWIDTH 359 0
DWIDTH 11 0
BBX 14 6 2 18
BITMAP
1020
7CF8
FCFC
FCFC
7CF8
3870
ENDCHAR
STARTCHAR copyright
ENCODING 169
SWIDTH 890 0
DWIDTH 28 0
BBX 25 24 4 0
BITMAP
00080000
01FFC000
03FFF000
0E003800
1C001C00
1C181C00
3BFF0E00
30FF8600
60E3C300
7001C380
E000E300
6000E300
6000E300
E000E300
7000E380
6001E300
3067C600
38FF8E00
38FF0E00
0C000C00
0E003800
07C1F000
01FFE000
003F0000
ENDCHAR
STARTCHAR ordfeminine
ENCODING 170
SWIDTH 494 0
DWIDTH 16 0
BBX 15 16 2 8
BITMAP
01C0
E7E0
FFE0
FDF0
F078
7038
F03C
F03C
7C78
7FF8
77F8
3BE0
0000
7FFC
7FFC
3FFE
ENDCHAR
STARTCHAR guillemotleft
ENCODING 171
SWIDTH 465 0
DWIDTH 15 0
BBX 15 14 2 2
BITMAP
F3C0
F3C0
79E0
7DF0
3EF8
1F7C
0F3E
0F3C
0FBE
1F7C
1F7C
1E78
3CF0
7DF0
ENDCHAR
STARTCHAR logicalnot
ENCODING 172
SWIDTH 680 0
DWIDTH 22 0
BBX 18 10 4 7
BITMAP
FFFFC0
FFFFC0
FFFFC0
FFFFC0
FFFFC0
E00000
E00000
E00000
E00000
E00000
ENDCHAR
STARTCHAR macron
ENCODING 175
SWIDTH 328 0
DWIDTH 10 0
BBX 12 3 3 19
BITMAP
FFE0
FFE0
7FF0
ENDCHAR
STARTCHAR degree
ENCODING 176
SWIDTH 360 0
DWIDTH 12 0
BBX 10 9 3 15
BITMAP
0800
7F00
7F80
60C0
C0C0
C0C0
6180
6380
3E00
ENDCHAR
STARTCHAR acute
ENCODING 180
SWIDTH 286 0
DWIDTH 9 0
BBX 6 5 6 18
BITMAP
F0
78
38
1C
1C
ENDCHAR
STARTCHAR paragraph
ENCODING 182
SWIDTH 614 0
DWIDTH 20 0
BBX 19 23 3 0
BITMAP
FFE000
FFFF00
001F80
0001C0
39C1C0
39C0E0
39C0E0
39C0E0
39C0E0
1DC1C0
1DC3C0
1CFF80
1CFF00
1DF800
1CE000
1CE000
1CE000
0EE000
0EE000
0EE000
0EE000
0E7000
0E7000
ENDCHAR
STARTCHAR periodcentered
ENCODING 183
SWIDTH 295 0
DWIDTH 9 0
BBX 8 6 3 6
BITMAP
30
FF
FF
FF
FF
3E
ENDCHAR
STARTCHAR cedilla
ENCODING 184
SWIDTH 194 0
DWIDTH 6 0
BBX 6 6 1 -7
BITMAP
38
F8
F0
60
3C
08
ENDCHAR
STARTCHAR ordmasculine
ENCODING 186
SWIDTH 490 0
DWIDTH 16 0
BBX 15 16 2 8
BITMAP
0200
3FC0
3FF0
7EF0
7878
F078
F03C
783C
7878
3FF8
1FF0
0FE0
0000
7FFC
3FFE
3FFE
ENDCHAR
STARTCHAR guillemotright
ENCODING 187
SWIDTH 465 0
DWIDTH 15 0
BBX 15 14 2 2
BITMAP
1E78
1E78
3CF0
7DF0
7DF0
FBE0
79E0
79E0
7DF0
3EF8
3FF8
0F3C
0F3C
079E
ENDCHAR
STARTCHAR questiondown
ENCODING 191
SWIDTH 501 0
DWIDTH 16 0
BBX 16 24 1 0
BITMAP
1800
7F00
7F80
7FC0
7F80
3F80
0600
0000
1F00
0F80
0F80
0FC0
0FF8
0FFC
0FFC
07FE
21FE
30FF
70FF
7DFF
FFFE
FFFC
1FF8
03F8
ENDCHAR
STARTCHAR Agrave
ENCODING 192
SWIDTH 652 0
DWIDTH 21 0
BBX 23 30 -1 0
BITMAP
03E000
03C000
03C000
038000
070000
000000
000000
0FF000
1FF000
0FF800
0FF800
1FF800
1FFC00
1FFC00
1FFE00
1FFE00
1FEF00
1FEF80
3FCF80
3FC7C0
3FC7C0
3FFFE0
3FFFE0
7FFFE0
3FFFF0
7FC1F0
7FC0F8
7FC0F8
7FC07C
FFC07E
ENDCHAR
STARTCHAR Aacute
ENCODING 193
SWIDTH 652 0
DWIDTH 21 0
BBX 23 30 -1 0
BITMAP
1E0000
0F0000
0F0000
038000
038000
000000
000000
0FF000
1FF000
0FF800
0FF800
1FF800
1FFC00
1FFC00
1FFE00
1FFE00
1FEF00
1FEF80
3FCF80
3FC7C0
3FC7C0
3FFFE0
3FFFE0
7FFFE0
3FFFF0
7FC1F0
7FC0F8
7FC0F8
7FC07C
FFC07E
ENDCHAR
STARTCHAR Acircumflex
ENCODING 194
SWIDTH 652 0
DWIDTH 21 0
BBX 23 30 -1 0
BITMAP
078000
0F8000
0FC000
1CE000
1C7000
000000
000000
0FF000
1FF000
0FF800
0FF800
1FF800
1FFC00
1FFC00
1FFE00
1FFE00
1FEF00
1FEF80
3FCF80
3FC7C0
3FC7C0
3FFFE0
3FFFE0
7FFFE0
3FFFF0
7FC1F0
7FC0F8
7FC0F8
7FC07C
FFC07E
ENDCHAR
STARTCHAR Atilde
ENCODING 195
SWIDTH 652 0
DWIDTH 21 0
BBX 23 29 -1 0
BITMAP
41F000
3FF800
3FF800
3F8800
000000
000000
0FF000
1FF000
0FF800
0FF800
1FF800
1FFC00
1FFC00
1FFE00
1FFE00
1FEF00
1FEF80
3FCF80
3FC7C0
3FC7C0
3FFFE0
3FFFE0
7FFFE0
3FFFF0
7FC1F0
7FC0F8
7FC0F8
7FC07C
FFC07E
ENDCHAR
STARTCHAR Adieresis
ENCODING 196
SWIDTH 652 0
DWIDTH 21 0
BBX 23 27 -1 0
BITMAP
102000
7CF800
7EFC00
7FFC00
3FF800
1FF000
0FF800
0FF800
1FF800
1FFC00
1FFC00
1FFE00
1FFE00
1FEF00
1FEF80
3FCF80
3FC7C0
3FC7C0
3FFFE0
3FFFE0
7FFFE0
3FFFF0
7FC1F0
7FC0F8
7FC0F8
7FC07C
FFC07E
ENDCHAR
STARTCHAR Aring
ENCODING 197
SWIDTH 652 0
DWIDTH 21 0
BBX 23 30 -1 0
BITMAP
010000
07C000
0EE000
0C6000
066000
07E000
01C000
0FF000
1FF000
0FF800
0FF800
1FF800
1FFC00
1FFC00
1FFE00
1FFE00
1FEF00
1FEF80
3FCF80
3FC7C0
3FC7C0
3FFFE0
3FFFE0
7FFFE0
3FFFF0
7FC1F0
7FC0F8
7FC0F8
7FC07C
FFC07E
ENDCHAR
STARTCHAR AE
ENCODING 198
SWIDTH 954 0
DWIDTH 31 0
BBX 34 23 -1 0
BITMAP
FFFFF00000
FFFFF00000
FFFFF00000
FFFFF00000
00FFF80000
00FF7C0000
00FF3E0000
007FBE0000
207F9F0000
1FFF8F8000
1FFF8F8000
1FFF87C000
1FFF83E000
003FC3E000
003FFFF000
003FFFF800
003FFFF800
003FFFFC00
3FFFC07C00
3FFFC03E00
3FFFC03F00
1FFFE01F80
3FFFE00FC0
ENDCHAR
STARTCHAR Ccedilla
ENCODING 199
SWIDTH 602 0
DWIDTH 19 0
BBX 20 31 2 -7
BITMAP
078000
FFF000
FFF800
FFFC00
7FFF00
607F80
607F80
403FC0
403FC0
001FE0
001FE0
001FE0
001FE0
001FE0
001FE0
001FE0
001FE0
101FF0
103FE0
3FFFE0
3FFFC0
3FFF80
07FF00
01FC00
000000
007000
01F000
01E000
00C000
007800
001000
ENDCHAR
STARTCHAR Egrave
ENCODING 200
SWIDTH 555 0
DWIDTH 18 0
BBX 20 30 1 0
BITMAP
01F000
01E000
03C000
03C000
038000
000000
000000
FFFF00
FFFF00
FFFF00
FFFF00
00FF00
007F80
007F80
007F80
107F80
1FFF80
1FFF80
0FFFC0
0FFFC0
003FC0
003FC0
003FC0
003FC0
001FE0
3FFFC0
1FFFE0
1FFFE0
1FFFF0
1FFFF0
ENDCHAR
STARTCHAR Eacute
ENCODING 201
SWIDTH 555 0
DWIDTH 18 0
BBX 20 30 1 0
BITMAP
1E0000
0F0000
078000
038000
01C000
000000
000000
FFFF00
FFFF00
FFFF00
FFFF00
00FF00
007F80
007F80
007F80
107F80
1FFF80
1FFF80
0FFFC0
0FFFC0
003FC0
003FC0
003FC0
003FC0
001FE0
3FFFC0
1FFFE0
1FFFE0
1FFFF0
1FFFF0
ENDCHAR
STARTCHAR Ecircumflex
ENCODING 202
SWIDTH 555 0
DWIDTH 18 0
BBX 20 30 1 0
BITMAP
078000
07C000
0EE000
1C7000
3C7000
000000
000000
FFFF00
FFFF00
FFFF00
FFFF00
00FF00
007F80
007F80
007F80
107F80
1FFF80
1FFF80
0FFFC0
0FFFC0
003FC0
003FC0
003FC0
003FC0
001FE0
3FFFC0
1FFFE0
1FFFE0
1FFFF0
1FFFF0
ENDCHAR
STARTCHAR Edieresis
ENCODING 203
SWIDTH 555 0
DWIDTH 18 0
BBX 20 30 1 0
BITMAP
102000
7EFC00
7EFC00
7C7C00
3C7800
000000
000000
FFFF00
FFFF00
FFFF00
FFFF00
00FF00
007F80
007F80
007F80
107F80
1FFF80
1FFF80
0FFFC0
0FFFC0
003FC0
003FC0
003FC0
003FC0
001FE0
3FFFC0
1FFFE0
1FFFE0
1FFFF0
1FFFF0
ENDCHAR
STARTCHAR Igrave
ENCODING 204
SWIDTH 318 0
DWIDTH 10 0
BBX 11 30 2 0
BITMAP
1E00
3C00
3C00
3800
7000
0000
0000
FF00
FF00
FF00
FF00
FF00
7F80
7F80
7F80
7F80
7F80
7F80
3FC0
3FC0
3FC0
3FC0
3FC0
3FC0
1FE0
1FE0
1FE0
3FE0
1FE0
1FE0
ENDCHAR
STARTCHAR Iacute
ENCODING 205
SWIDTH 318 0
DWIDTH 10 0
BBX 12 30 2 0
BITMAP
F000
F000
3800
1C00
1C00
0000
0000
7F80
7F80
7F80
7F80
7F80
3FC0
3FC0
3FC0
3FC0
3FC0
3FC0
1FE0
1FE0
1FE0
1FE0
1FE0
1FE0
0FF0
0FF0
0FF0
1FF0
0FF0
0FF0
ENDCHAR
STARTCHAR Icircumflex
ENCODING 206
SWIDTH 318 0
DWIDTH 10 0
BBX 12 30 2 0
BITMAP
3C00
7C00
7E00
E700
E380
0000
0000
7F80
7F80
7F80
7F80
7F80
3FC0
3FC0
3FC0
3FC0
3FC0
3FC0
1FE0
1FE0
1FE0
1FE0
1FE0
1FE0
0FF0
0FF0
0FF0
1FF0
0FF0
0FF0
ENDCHAR
STARTCHAR Idieresis
ENCODING 207
SWIDTH 318 0
DWIDTH 10 0
BBX 15 30 2 0
BITMAP
1020
FCFC
7EFC
7CF8
3C78
0000
0000
0FF0
0FF0
0FF0
0FF0
0FF0
07F8
07F8
07F8
07F8
07F8
07F8
03FC
03FC
03FC
03FC
03FC
03FC
01FE
01FE
01FE
03FE
01FE
01FE
ENDCHAR
STARTCHAR Ntilde
ENCODING 209
SWIDTH 644 0
DWIDTH 21 0
BBX 22 29 2 0
BITMAP
10F800
1FFC00
0FFE00
0FE200
000000
000000
F80FE0
F80FE0
7C1FE0
7C3FE0
7C3FE0
7C3FF0
7C7FE0
7C7FF0
3EFFF0
3FFFF0
3FFFF0
3FFEF8
1FFEF8
3FFCF8
1FFCF8
1FFCF8
1FF8F8
1FF07C
1FF07C
0FF07C
1FE07C
0FE07C
1FC07C
ENDCHAR
STARTCHAR Ograve
ENCODING 210
SWIDTH 664 0
DWIDTH 21 0
BBX 21 30 2 0
BITMAP
01E000
01E000
03C000
038000
038000
000000
01E000
3FFC00
3FFF00
7FFF00
FFFF80
FE7FC0
FE1FC0
FF1FE0
FF0FF0
FF0FF0
FF0FF0
FF0FF0
FF0FF0
FF0FF0
FF07F8
7F87F8
7F87F8
7F87F8
3F8FF0
1FE7F0
1FFFE0
07FFE0
03FF80
007F00
ENDCHAR
STARTCHAR Oacute
ENCODING 211
SWIDTH 664 0
DWIDTH 21 0
BBX 21 30 2 0
BITMAP
1E0000
0F0000
070000
038000
01C000
000000
01E000
3FFC00
3FFF00
7FFF00
FFFF80
FE7FC0
FE1FC0
FF1FE0
FF0FF0
FF0FF0
FF0FF0
FF0FF0
FF0FF0
FF0FF0
FF07F8
7F87F8
7F87F8
7F87F8
3F8FF0
1FE7F0
1FFFE0
07FFE0
03FF80
007F00
ENDCHAR
STARTCHAR Ocircumflex
ENCODING 212
SWIDTH 664 0
DWIDTH 21 0
BBX 21 30 2 0
BITMAP
078000
07E000
0EE000
0EF000
1E7800
000000
01E000
3FFC00
3FFF00
7FFF00
FFFF80
FE7FC0
FE1FC0
FF1FE0
FF0FF0
FF0FF0
FF0FF0
FF0FF0
FF0FF0
FF0FF0
FF07F8
7F87F8
7F87F8
7F87F8
3F8FF0
1FE7F0
1FFFE0
07FFE0
03FF80
007F00
ENDCHAR
STARTCHAR Otilde
ENCODING 213
SWIDTH 664 0
DWIDTH 21 0
BBX 21 29 2 0
BITMAP
21F800
3FF800
3FF800
1FC800
000000
01E000
3FFC00
3FFF00
7FFF00
FFFF80
FE7FC0
FE1FC0
FF1FE0
FF0FF0
FF0FF0
FF0FF0
FF0FF0
FF0FF0
FF0FF0
FF07F8
7F87F8
7F87F8
7F87F8
3F8FF0
1FE7F0
1FFFE0
07FFE0
03FF80
007F00
ENDCHAR
STARTCHAR Odieresis
ENCODING 214
SWIDTH 664 0
DWIDTH 21 0
BBX 22 26 2 0
BITMAP
200180
FC07C0
FC47E0
7FFFE0
7FFFC0
3FFFC0
3FFFE0
3FBFE0
7F0FE0
7F8FF0
7F87F8
7F87F8
7F87F8
7F87F8
7F87F8
7F87F8
7F83FC
3FC3FC
3FC3FC
1FE3FC
0FE7F8
0FF3F8
0FFFF0
03FFF0
01FFC0
003F80
ENDCHAR
STARTCHAR Oslash
ENCODING 216
SWIDTH 663 0
DWIDTH 21 0
BBX 21 25 2 -1
BITMAP
60F000
7FFE00
3FFF00
7FFF00
FFFF80
FE3FC0
FE1FE0
FF1FE0
FF9FE0
FFCFF0
FFEFF0
FF6FF0
FF6FF0
FF3FF0
7F9FF8
7F9FF0
7F8FF0
7F87F8
1FCFF0
1FE7F0
0FFFF0
07FFE0
03FFE0
007FE0
000040
ENDCHAR
STARTCHAR Ugrave
ENCODING 217
SWIDTH 627 0
DWIDTH 20 0
BBX 21 30 2 0
BITMAP
00F000
00F000
01E000
01C000
01C000
000000
000000
F83FC0
F83FC0
F83FC0
7C1FE0
7C1FE0
7C1FE0
7C1FE0
7C1FE0
7C1FE0
3E0FF0
3E0FF0
3E0FF0
3E0FF0
3E0FF0
3E0FF0
3E0FF0
1F07F8
1F0FF0
0FFFF8
07FFF0
07FFE0
01FFC0
003F00
ENDCHAR
STARTCHAR Uacute
ENCODING 218
SWIDTH 627 0
DWIDTH 20 0
BBX 21 30 2 0
BITMAP
0F8000
078000
03C000
03C000
00E000
000000
000000
F83FC0
F83FC0
F83FC0
7C1FE0
7C1FE0
7C1FE0
7C1FE0
7C1FE0
7C1FE0
3E0FF0
3E0FF0
3E0FF0
3E0FF0
3E0FF0
3E0FF0
3E0FF0
1F07F8
1F0FF0
0FFFF8
07FFF0
07FFE0
01FFC0
003F00
ENDCHAR
STARTCHAR Ucircumflex
ENCODING 219
SWIDTH 627 0
DWIDTH 20 0
BBX 21 30 2 0
BITMAP
03C000
03E000
077000
073800
1E1C00
000000
000000
F83FC0
F83FC0
F83FC0
7C1FE0
7C1FE0
7C1FE0
7C1FE0
7C1FE0
7C1FE0
3E0FF0
3E0FF0
3E0FF0
3E0FF0
3E0FF0
3E0FF0
3E0FF0
1F07F8
1F0FF0
0FFFF8
07FFF0
07FFE0
01FFC0
003F00
ENDCHAR
STARTCHAR Udieresis
ENCODING 220
SWIDTH 627 0
DWIDTH 20 0
BBX 21 26 2 0
BITMAP
186000
7EF800
7EFC00
FEFFC0
F83FE0
F83FC0
7C1FE0
7C1FE0
7C1FE0
7C1FE0
7C1FE0
7C1FE0
3E0FF0
3E0FF0
3E0FF0
3E0FF0
3E0FF0
3E0FF0
3E0FF0
1F07F8
1F0FF0
0FFFF8
07FFF0
07FFE0
01FFC0
003F00
ENDCHAR
STARTCHAR germandbls
ENCODING 223
SWIDTH 597 0
DWIDTH 19 0
BBX 20 24 1 0
BITMAP
060000
7FF000
7FFC00
FFFE00
FFFF00
FC7F80
FC7F00
FE3F80
7FBF80
3FBF80
0FBF80
3FBF80
7FBF80
7F9FC0
FF1FC0
7F1FC0
7F1FE0
7F9FC0
7F1FC0
3FEFE0
3FEFE0
3FEFE0
1FEFF0
07EFE0
ENDCHAR
STARTCHAR agrave
ENCODING 224
SWIDTH 564 0
DWIDTH 18 0
BBX 18 23 3 0
BITMAP
00F000
01E000
03C000
038000
038000
000000
307000
FFFE00
7FFF00
7FFF00
7F1F80
3FBF80
3F9FC0
7F9FC0
3F9FC0
3F9FC0
3F9FC0
1FDFC0
1FDFC0
3FFFC0
1FFFC0
1FFF80
1FCF00
ENDCHAR
STARTCHAR aacute
ENCODING 225
SWIDTH 564 0
DWIDTH 18 0
BBX 18 23 3 0
BITMAP
0F0000
078000
078000
01C000
00E000
000000
307000
FFFE00
7FFF00
7FFF00
7F1F80
3FBF80
3F9FC0
7F9FC0
3F9FC0
3F9FC0
3F9FC0
1FDFC0
1FDFC0
3FFFC0
1FFFC0
1FFF80
1FCF00
ENDCHAR
STARTCHAR acircumflex
ENCODING 226
SWIDTH 564 0
DWIDTH 18 0
BBX 18 23 3 0
BITMAP
03C000
07E000
0EE000
0E7000
1E3800
000000
307000
FFFE00
7FFF00
7FFF00
7F1F80
3FBF80
3F9FC0
7F9FC0
3F9FC0
3F9FC0
3F9FC0
1FDFC0
1FDFC0
3FFFC0
1FFFC0
1FFF80
1FCF00
ENDCHAR
STARTCHAR atilde
ENCODING 227
SWIDTH 564 0
DWIDTH 18 0
BBX 18 22 3 0
BITMAP
3FF800
3FF800
1FFC00
1F0000
000000
307000
FFFE00
7FFF00
7FFF00
7F1F80
3FBF80
3F9FC0
7F9FC0
3F9FC0
3F9FC0
3F9FC0
1FDFC0
1FDFC0
3FFFC0
1FFFC0
1FFF80
1FCF00
ENDCHAR
STARTCHAR adieresis
ENCODING 228
SWIDTH 574 0
DWIDTH 18 0
BBX 18 24 2 0
BITMAP
102000
7EF800
7EFC00
7EFC00
3E7C00
383800
000000
307000
FFFE00
7FFF00
7FFF00
7F1F80
3FBF80
3F9FC0
7F9FC0
3F9FC0
3F9FC0
3F9FC0
1FDFC0
1FDFC0
3FFFC0
1FFFC0
1FFF80
1FCF00
ENDCHAR
STARTCHAR aring
ENCODING 229
SWIDTH 586 0
DWIDTH 19 0
BBX 18 24 2 0
BITMAP
020000
078000
0DC000
0CC000
078000
078000
000000
307000
FFFE00
7FFF00
7FFF00
7F1F80
3FBF80
3F9FC0
7F9FC0
3F9FC0
3F9FC0
3F9FC0
1FDFC0
1FDFC0
3FFFC0
1FFFC0
1FFF80
1FCF00
ENDCHAR
STARTCHAR ae
ENCODING 230
SWIDTH 813 0
DWIDTH 26 0
BBX 25 17 2 0
BITMAP
0200E000
3FFFFC00
7FFFFE00
FFFFFE00
FEFF3F00
FE7F7F00
FE7F3F80
FFFF3F80
1FFFBF80
07FF3F80
00FF3F80
207FBF80
70FFBF80
7FFFFF80
FFFFFF80
1FFFFF00
07FF3E00
ENDCHAR
STARTCHAR ccedilla
ENCODING 231
SWIDTH 490 0
DWIDTH 16 0
BBX 16 23 2 -6
BITMAP
F000
FFC0
7FF0
7FF8
FFF8
01FC
01FC
01FE
00FE
00FE
00FE
20FE
31FF
7FFE
FFFC
7FF8
07E0
0100
03E0
03E0
0700
0180
00C0
ENDCHAR
STARTCHAR egrave
ENCODING 232
SWIDTH 529 0
DWIDTH 17 0
BBX 17 23 2 0
BITMAP
03C000
03C000
038000
0F0000
0E0000
000000
038000
3FF000
7FFC00
7FFE00
FEFE00
FC7F00
FE7F00
FFFF00
1FFF00
03FF80
007F80
207F80
30FF00
3FFF00
7FFE00
1FFC00
03F800
ENDCHAR
STARTCHAR eacute
ENCODING 233
SWIDTH 529 0
DWIDTH 17 0
BBX 17 23 2 0
BITMAP
3C0000
1E0000
0E0000
070000
038000
000000
038000
3FF000
7FFC00
7FFE00
FEFE00
FC7F00
FE7F00
FFFF00
1FFF00
03FF80
007F80
207F80
30FF00
3FFF00
7FFE00
1FFC00
03F800
ENDCHAR
STARTCHAR ecircumflex
ENCODING 234
SWIDTH 529 0
DWIDTH 17 0
BBX 17 23 2 0
BITMAP
0F0000
1F8000
1DC000
39E000
38F000
000000
038000
3FF000
7FFC00
7FFE00
FEFE00
FC7F00
FE7F00
FFFF00
1FFF00
03FF80
007F80
207F80
30FF00
3FFF00
7FFE00
1FFC00
03F800
ENDCHAR
STARTCHAR edieresis
ENCODING 235
SWIDTH 529 0
DWIDTH 17 0
BBX 17 24 2 0
BITMAP
204000
F9F000
FDF800
FDF800
7CF800
306000
000000
038000
3FF000
7FFC00
7FFE00
FEFE00
FC7F00
FE7F00
FFFF00
1FFF00
03FF80
007F80
207F80
30FF00
3FFF00
7FFE00
1FFC00
03F800
ENDCHAR
STARTCHAR igrave
ENCODING 236
SWIDTH 306 0
DWIDTH 10 0
BBX 11 23 1 0
BITMAP
1E00
1E00
1C00
3C00
7000
0000
7F00
7F00
FF00
7F00
7F00
7F00
3F80
3F80
3F80
3FC0
3F80
3F80
1FC0
1FC0
1FC0
1FE0
1FE0
ENDCHAR
STARTCHAR iacute
ENCODING 237
SWIDTH 306 0
DWIDTH 10 0
BBX 12 23 1 0
BITMAP
F000
7800
3800
1C00
0E00
0000
3F80
3F80
7F80
3F80
3F80
3F80
1FC0
1FC0
1FC0
1FE0
1FC0
1FC0
0FE0
0FE0
0FE0
0FF0
0FF0
ENDCHAR
STARTCHAR icircumflex
ENCODING 238
SWIDTH 306 0
DWIDTH 10 0
BBX 13 23 1 0
BITMAP
1E00
3F00
3B80
71E0
F1E0
0000
1FC0
1FC0
3FC0
1FC0
1FC0
1FC0
0FE0
0FE0
0FE0
0FF0
0FE0
0FE0
07F0
07F0
07F0
07F8
07F8
ENDCHAR
STARTCHAR idieresis
ENCODING 239
SWIDTH 306 0
DWIDTH 10 0
BBX 14 24 1 0
BITMAP
2040
F9F0
FDF8
FDF8
7CF8
3060
0000
0FE0
0FE0
1FE0
0FE0
0FE0
0FE0
07F0
07F0
07F0
07F8
07F0
07F0
03F8
03F8
03F8
03FC
03FC
ENDCHAR
STARTCHAR ntilde
ENCODING 241
SWIDTH 577 0
DWIDTH 18 0
BBX 19 22 1 0
BITMAP
7FF000
3FF800
3FF800
7E0000
000000
1E7F00
7FFF00
FFFF00
FFFF00
FE7F80
FE7F00
7F3F80
7F3F80
FF3F80
7F3FC0
7F3F80
7F3F80
7F3F80
3F9FC0
7F9FC0
3FDFE0
3FDFE0
ENDCHAR
STARTCHAR ograve
ENCODING 242
SWIDTH 547 0
DWIDTH 18 0
BBX 17 23 3 0
BITMAP
01E000
03C000
038000
038000
070000
000000
00C000
3FF800
3FFE00
7FFE00
7FFF00
7F3F80
7F3F80
7F3F80
FF3F80
7F3F80
7F3F80
3FBF80
3FBF80
1FFF80
0FFF80
07FE00
01F800
ENDCHAR
STARTCHAR oacute
ENCODING 243
SWIDTH 547 0
DWIDTH 18 0
BBX 17 23 3 0
BITMAP
1E0000
0F0000
070000
038000
01C000
000000
00C000
3FF800
3FFE00
7FFE00
7FFF00
7F3F80
7F3F80
7F3F80
FF3F80
7F3F80
7F3F80
3FBF80
3FBF80
1FFF80
0FFF80
07FE00
01F800
ENDCHAR
STARTCHAR ocircumflex
ENCODING 244
SWIDTH 547 0
DWIDTH 18 0
BBX 17 23 3 0
BITMAP
0F8000
0FC000
0EE000
1E7000
383800
000000
00C000
3FF800
3FFE00
7FFE00
7FFF00
7F3F80
7F3F80
7F3F80
FF3F80
7F3F80
7F3F80
3FBF80
3FBF80
1FFF80
0FFF80
07FE00
01F800
ENDCHAR
STARTCHAR otilde
ENCODING 245
SWIDTH 547 0
DWIDTH 18 0
BBX 17 22 3 0
BITMAP
3FF800
3FF800
3FF800
3E0000
000000
00C000
3FF800
3FFE00
7FFE00
7FFF00
7F3F80
7F3F80
7F3F80
FF3F80
7F3F80
7F3F80
3FBF80
3FBF80
1FFF80
0FFF80
07FE00
01F800
ENDCHAR
STARTCHAR odieresis
ENCODING 246
SWIDTH 547 0
DWIDTH 18 0
BBX 17 24 3 0
BITMAP
202000
7DF800
FCFC00
FCFC00
7CF800
387000
000000
00C000
3FF800
3FFE00
7FFE00
7FFF00
7F3F80
7F3F80
7F3F80
FF3F80
7F3F80
7F3F80
3FBF80
3FBF80
1FFF80
0FFF80
07FE00
01F800
ENDCHAR
STARTCHAR oslash
ENCODING 248
SWIDTH 548 0
DWIDTH 18 0
BBX 17 17 3 0
BITMAP
60F000
3FFC00
3FFE00
7FFE00
7FFF00
7F7F00
FF3F80
FFFF80
FF7F80
7F7F80
7F3F80
3FBF80
3FBF80
1FFF80
0FFF80
07FF00
00FE80
ENDCHAR
STARTCHAR ugrave
ENCODING 249
SWIDTH 576 0
DWIDTH 18 0
BBX 19 23 2 0
BITMAP
00F000
01E000
03C000
038000
038000
000000
FF7F80
7F3F80
FF3F80
7FFF80
7F3F80
7F3F80
3FBF80
3F9FC0
3F9FC0
3FDFC0
3F9FC0
3F9FC0
1FDFC0
1FFFE0
1FFFE0
1FFFC0
1FEF80
ENDCHAR
STARTCHAR uacute
ENCODING 250
SWIDTH 576 0
DWIDTH 18 0
BBX 19 23 2 0
BITMAP
0F0000
078000
038000
01C000
01C000
000000
FF7F80
7F3F80
FF3F80
7FFF80
7F3F80
7F3F80
3FBF80
3F9FC0
3F9FC0
3FDFC0
3F9FC0
3F9FC0
1FDFC0
1FFFE0
1FFFE0
1FFFC0
1FEF80
ENDCHAR
STARTCHAR ucircumflex
ENCODING 251
SWIDTH 576 0
DWIDTH 18 0
BBX 19 23 2 0
BITMAP
03C000
07E000
0EE000
0E7000
1E3800
000000
FF7F80
7F3F80
FF3F80
7FFF80
7F3F80
7F3F80
3FBF80
3F9FC0
3F9FC0
3FDFC0
3F9FC0
3F9FC0
1FDFC0
1FFFE0
1FFFE0
1FFFC0
1FEF80
ENDCHAR
STARTCHAR udieresis
ENCODING 252
SWIDTH 577 0
DWIDTH 18 0
BBX 19 24 2 0
BITMAP
101000
3E7C00
7EFC00
7EFC00
3E7C00
0C1800
000000
FF7F80
7F3F80
FF3F80
7FFF80
7F3F80
7F3F80
3FBF80
3F9FC0
3F9FC0
3FDFC0
3F9FC0
3F9FC0
1FDFC0
1FFFE0
1FFFE0
1FFFC0
1FEF80
ENDCHAR
STARTCHAR ydieresis
ENCODING 255
SWIDTH 459 0
DWIDTH 15 0
BBX 20 30 -2 -6
BITMAP
102000
7CF800
7EFC00
7EFC00
7C7C00
1C3000
000000
FCFF00
F8FF00
7CFE00
7CFE00
7CFE00
3EFE00
3EFE00
1FFE00
1FFE00
0FFE00
0FFC00
0FFC00
07FC00
03FC00
03F800
01FC00
01F800
00FC00
007FE0
007FE0
001FF0
000FE0
0001F0
ENDCHAR
STARTCHAR dotlessi
ENCODING 305
SWIDTH 306 0
DWIDTH 10 0
BBX 11 17 1 0
BITMAP
7F00
7F00
FF00
7F00
7F00
7F00
3F80
3F80
3F80
3FC0
3F80
3F80
1FC0
1FC0
1FC0
1FE0
1FE0
ENDCHAR
STARTCHAR OE
ENCODING 338
SWIDTH 915 0
DWIDTH 29 0
BBX 30 24 2 0
BITMAP
0003F000
FFFFFE00
FFFFFF80
FFFFFF80
FFFFFFC0
00FF1FE0
00FF0FF0
00FF0FF0
007F8FF0
107F87F8
1FFF87F8
1FFF87F8
1FFF87F8
1FFF87F8
003FC7F8
003FC3FC
003FC3FC
003FC7F8
003FC7F8
3FFFE7F8
3FFFFFF0
3FFFFFE0
3FFFFFC0
1FFFFF00
ENDCHAR
STARTCHAR oe
ENCODING 339
SWIDTH 819 0
DWIDTH 26 0
BBX 26 17 2 0
BITMAP
0383E000
7FFFF800
7FFFFE00
FFFFFE00
FCFFFF00
FE7F7F00
FE7F3F80
FFFF7F80
1FFF3FC0
03FFBF80
00FF3F80
207FBF80
38FFFF80
7FFFFF80
7FFFFF00
1FFFFE00
07FFF800
ENDCHAR
STARTCHAR Ydieresis
ENCODING 376
SWIDTH 598 0
DWIDTH 19 0
BBX 21 30 3 0
BITMAP
040800
1FBF00
1FBF00
0F9F00
0F1E00
000000
000000
FC0FF8
F80FF8
7E1FF0
3F1FF0
1F1FE0
1F1FF0
0F9FE0
07DFE0
07FFC0
03FFC0
01FFC0
01FF80
00FF80
007F80
007F80
007F80
007F80
007F80
007F80
003FC0
003FC0
003FC0
003FE0
ENDCHAR
STARTCHAR florin
ENCODING 402
SWIDTH 519 0
DWIDTH 17 0
BBX 24 31 -3 -7
BITMAP
FC0000
FF8000
FFC000
FFE000
7FF000
03F800
03F800
1FFF00
1FFF00
1FFF00
0FFF80
01FC00
01FC00
00FE00
01FE00
00FE00
007F00
007F00
007F00
007F00
003F80
007F80
003F80
001FC0
001FC0
001FC0
000FE2
0007FE
0007FE
0001FF
00003C
ENDCHAR
STARTCHAR circumflex
ENCODING 710
SWIDTH 360 0
DWIDTH 12 0
BBX 11 5 4 18
BITMAP
1E00
3F00
3B80
71E0
F1E0
ENDCHAR
STARTCHAR caron
ENCODING 711
SWIDTH 361 0
DWIDTH 12 0
BBX 12 5 4 18
BITMAP
F0F0
39C0
1FC0
0FC0
0780
ENDCHAR
STARTCHAR breve
ENCODING 728
SWIDTH 291 0
DWIDTH 9 0
BBX 10 5 4 18
BITMAP
E1C0
E380
7F80
3F00
0E00
ENDCHAR
STARTCHAR ring
ENCODING 730
SWIDTH 209 0
DWIDTH 7 0
BBX 6 6 4 18
BITMAP
20
78
DC
CC
78
78
ENDCHAR
STARTCHAR tilde
ENCODING 732
SWIDTH 338 0
DWIDTH 11 0
BBX 11 4 4 18
BITMAP
FFE0
FFE0
FFE0
7C00
ENDCHAR
STARTCHAR endash
ENCODING 8211
SWIDTH 606 0
DWIDTH 19 0
BBX 15 5 4 10
BITMAP
FFFC
FFFC
FFFC
FFFC
7FFE
ENDCHAR
STARTCHAR emdash
ENCODING 8212
SWIDTH 508 0
DWIDTH 16 0
BBX 16 5 2 7
BITMAP
FFFF
FFFF
FFFF
FFFF
FFFF
ENDCHAR
STARTCHAR quoteleft
ENCODING 8216
SWIDTH 280 0
DWIDTH 9 0
BBX 10 9 4 14
BITMAP
F800
3E00
3E00
1F00
1F80
1F80
1FC0
1FC0
1FC0
ENDCHAR
STARTCHAR quoteright
ENCODING 8217
SWIDTH 281 0
DWIDTH 9 0
BBX 11 9 2 14
BITMAP
FF00
7F00
3F00
1F80
1F80
1F80
0F80
07C0
03E0
ENDCHAR
STARTCHAR quotesinglbase
ENCODING 8218
SWIDTH 280 0
DWIDTH 9 0
BBX 11 9 0 -3
BITMAP
FF00
7F00
3F00
1F80
1F80
1F80
0F80
07C0
03E0
ENDCHAR
STARTCHAR quotedblleft
ENCODING 8220
SWIDTH 518 0
DWIDTH 17 0
BBX 17 9 4 14
BITMAP
F1F000
7C7C00
3E7C00
3F3E00
3F3F00
3F3F00
1FBF80
3FBF80
1FFF80
ENDCHAR
STARTCHAR quotedblright
ENCODING 8221
SWIDTH 519 0
DWIDTH 17 0
BBX 18 9 2 14
BITMAP
FFFE00
7FFE00
3F7E00
3F3F00
3F3F00
1F3F00
0F9F00
0F8F80
0787C0
ENDCHAR
STARTCHAR quotedblbase
ENCODING 8222
SWIDTH 518 0
DWIDTH 17 0
BBX 18 9 0 -3
BITMAP
FFFE00
7FFE00
3F7E00
3F3F00
3F3F00
1F3F00
0F9F00
0F8F80
0787C0
ENDCHAR
STARTCHAR dagger
ENCODING 8224
SWIDTH 690 0
DWIDTH 22 0
BBX 21 31 3 -7
BITMAP
03F000
03F000
03F000
03F000
01F800
01F000
01F000
00F800
FFFFF8
FFFFF8
FFFFF8
FFFFF8
FFFFF8
00F800
007C00
007C00
007C00
007C00
007C00
007C00
003E00
003E00
007E00
003E00
003E00
003E00
001F00
001F00
003F00
001F80
001F80
ENDCHAR
STARTCHAR daggerdbl
ENCODING 8225
SWIDTH 697 0
DWIDTH 22 0
BBX 23 31 2 -7
BITMAP
03F000
01F800
01F800
01F000
00F800
00F800
00F800
FFFFF8
FFFFF8
FFFFF8
7FFFFC
7FFFFC
787C3C
007C00
007C00
007C00
007C00
303E0E
3FFFFE
3FFFFE
3FFFFE
3FFFFE
3FFFFE
001F00
001F00
003F00
001F80
001F80
001F80
001F80
001F80
ENDCHAR
STARTCHAR bullet
ENCODING 8226
SWIDTH 360 0
DWIDTH 12 0
BBX 9 10 4 7
BITMAP
0800
3F00
7F80
FF80
FF80
FF80
FF80
7F80
3F00
0C00
ENDCHAR
STARTCHAR ellipsis
ENCODING 8230
SWIDTH 864 0
DWIDTH 28 0
BBX 26 7 1 0
BITMAP
10080200
7E3F1F80
FE7F1FC0
FE7F1FC0
FE7F1FC0
7E3F1F80
3C1C0700
ENDCHAR
STARTCHAR perthousand
ENCODING 8240
SWIDTH 1078 0
DWIDTH 34 0
BBX 34 24 2 0
BITMAP
0000001000
0001C0FC00
0000E1FE00
000071FF00
000073E780
00003BEF80
000039F7C0
00001DE7C0
00001CF780
00000EFFC0
00000E7F80
0800877F00
3F07E3BC00
7F87FB8000
7FC7FDC000
7FC7FDC000
79EF3CE000
FBEFBEE000
FBE7BE7000
7FEFBE3800
3FE79E3800
3FE3FE1C00
3FC1FC1C00
0F80F80E00
ENDCHAR
STARTCHAR guilsinglleft
ENCODING 8249
SWIDTH 278 0
DWIDTH 9 0
BBX 9 14 2 2
BITMAP
F000
F000
7800
7C00
3E00
1F00
0F80
0F00
0F80
1F00
1F00
1E00
3C00
7C00
ENDCHAR
STARTCHAR guilsinglright
ENCODING 8250
SWIDTH 278 0
DWIDTH 9 0
BBX 9 14 2 2
BITMAP
1E00
1E00
3C00
7C00
7C00
F800
7800
7800
7C00
3E00
7E00
0F00
0F00
0780
ENDCHAR
STARTCHAR fraction
ENCODING 8260
SWIDTH 185 0
DWIDTH 6 0
BBX 14 28 -2 -2
BITMAP
E000
E000
7000
7000
7000
3800
3800
1C00
1C00
1C00
0E00
0E00
0700
0700
0700
0380
0380
01C0
01C0
01C0
00E0
00E0
0070
0070
0070
0038
0038
001C
ENDCHAR
STARTCHAR trademark
ENCODING 8482
SWIDTH 710 0
DWIDTH 23 0
BBX 19 11 5 12
BITMAP
E0EFE0
70FFE0
F0F1C0
79B180
D9F180
CDF180
CD98C0
C798C0
C71DC0
C719C0
C30CE0
ENDCHAR
STARTCHAR fi
ENCODING 64257
SWIDTH 606 0
DWIDTH 19 0
BBX 15 13 4 6
BITMAP
6020
F070
FCF8
7FF8
3FF8
1FE0
0FC0
1FE0
1FF8
3FF8
7E7E
1E38
0C10
ENDCHAR
STARTCHAR fl
ENCODING 64258
SWIDTH 481 0
DWIDTH 15 0
BBX 17 23 0 0
BITMAP
7F0000
3FE000
3FFC00
3FF800
3FF800
3FC400
3FC000
1FE000
1FE000
1FE000
1FE000
1FE000
1FE000
0FF000
0FF000
0FF000
0FF000
0FF000
0FF000
8FF080
7FFF00
7FFF00
7FFF00
ENDCHAR
STARTCHAR .notdef
ENCODING 64259
SWIDTH 290 0
DWIDTH 0 0
BBX 1 1 0 0
BITMAP
00
ENDCHAR
STARTCHAR .notdef
ENCODING 64260
SWIDTH 290 0
DWIDTH 9 0
BBX 1 1 0 0
BITMAP
00
ENDCHAR
STARTCHAR register
ENCODING 64261
SWIDTH 890 0
DWIDTH 28 0
BBX 25 24 4 0
BITMAP
00080000
01FFC000
03FFF000
0E003800
1C001C00
1C1F1C00
38FF8E00
31F70600
61C70300
71C38380
E0E38300
607F8300
603F8300
E01F8300
703F8380
603B8300
307B8600
3871CE00
39E1CE00
0C000C00
0E003800
07C1F000
01FFE000
003F0000
ENDCHAR
ENDFONT
